<svg width="48" height="25" viewBox="0 0 48 25" fill="none" xmlns="http://www.w3.org/2000/svg">
<path d="M48 23.2232C48 24.2054 46.9296 25 45.612 25L26.388 25C25.7547 25 25.1473 24.8128 24.6994 24.4796C24.2516 24.1464 24 23.6944 24 23.2232C24 22.752 24.2516 22.3 24.6994 21.9668C25.1473 21.6336 25.7547 21.4464 26.388 21.4464L45.612 21.4464C46.2453 21.4464 46.8527 21.6336 47.3006 21.9668C47.7484 22.3 48 22.752 48 23.2232V23.2232Z" fill="#030303"/>
<path d="M48 12.5C48 13.4822 46.9296 14.2768 45.612 14.2768L2.388 14.2768C1.75466 14.2768 1.14727 14.0896 0.699429 13.7564C0.251592 13.4232 -1.90735e-06 12.9712 -1.90735e-06 12.5C-1.90735e-06 12.0288 0.251592 11.5768 0.699429 11.2436C1.14727 10.9104 1.75466 10.7232 2.388 10.7232L45.612 10.7232C46.2453 10.7232 46.8527 10.9104 47.3006 11.2436C47.7484 11.5768 48 12.0288 48 12.5V12.5Z" fill="#030303"/>
<path d="M45.612 3.55353C46.2453 3.55353 46.8527 3.36633 47.3006 3.03312C47.7484 2.69991 48 2.24798 48 1.77675C48 1.30551 47.7484 0.853582 47.3006 0.52037C46.8527 0.187159 46.2453 -3.88839e-05 45.612 -3.88839e-05L16.788 -3.88839e-05C16.1547 -3.88839e-05 15.5473 0.187159 15.0994 0.52037C14.6516 0.853582 14.4 1.30551 14.4 1.77675C14.4 2.24798 14.6516 2.69991 15.0994 3.03312C15.5473 3.36633 16.1547 3.55353 16.788 3.55353L45.612 3.55353Z" fill="#030303"/>
</svg>
