<!-- Generated by IcoMoon.io -->
<svg version="1.1" xmlns="http://www.w3.org/2000/svg" width="20" height="20" viewBox="0 0 20 20">
<title>add_shopping_cart</title>
<path d="M5.977 12.305q0 0.195 0.195 0.195h9.648v1.68h-10q-0.664 0-1.152-0.508t-0.488-1.172q0-0.391 0.195-0.781l1.133-2.070-3.008-6.328h-1.68v-1.641h2.734q0.781 1.641 1.563 3.32 0.195 0.352 0.898 1.855t1.094 2.324h5.859q2.93-5.313 3.203-5.859l1.445 0.82-3.203 5.82q-0.469 0.859-1.445 0.859h-6.211l-0.742 1.367zM14.18 15q0.664 0 1.152 0.508t0.488 1.172-0.488 1.152-1.152 0.488-1.172-0.488-0.508-1.152 0.508-1.172 1.172-0.508zM5.82 15q0.664 0 1.172 0.508t0.508 1.172-0.508 1.152-1.172 0.488-1.152-0.488-0.488-1.152 0.488-1.172 1.152-0.508zM9.18 7.5v-2.5h-2.5v-1.68h2.5v-2.5h1.641v2.5h2.5v1.68h-2.5v2.5h-1.641z"></path>
</svg>
