<!-- Generated by IcoMoon.io -->
<svg version="1.1" xmlns="http://www.w3.org/2000/svg" width="20" height="20" viewBox="0 0 20 20">
<title>dots-three-horizontal</title>
<path d="M9.853 7.921c-1.148 0-2.080 0.931-2.080 2.079s0.932 2.079 2.080 2.079c1.148 0 2.078-0.931 2.078-2.079s-0.93-2.079-2.078-2.079zM3.239 7.921c-1.148 0-2.080 0.931-2.080 2.079s0.932 2.079 2.080 2.079c1.148 0 2.078-0.932 2.078-2.079s-0.93-2.079-2.078-2.079zM16.468 7.921c-1.148 0-2.080 0.931-2.080 2.079s0.932 2.079 2.080 2.079c1.148 0 2.078-0.931 2.078-2.079s-0.93-2.079-2.078-2.079z"></path>
</svg>
