<!-- Generated by IcoMoon.io -->
<svg version="1.1" xmlns="http://www.w3.org/2000/svg" width="20" height="20" viewBox="0 0 20 20">
<title>mail-envelope-closed</title>
<path d="M3.322 5.796l4.834 4.204-4.836 4.205c-0.121-0.115-0.196-0.278-0.196-0.459v-7.491c0-0.181 0.076-0.343 0.197-0.458zM17.304 5.795c0.121 0.115 0.196 0.278 0.196 0.459v7.491c0 0.181-0.076 0.343-0.197 0.458l-4.834-4.204 4.836-4.205zM12.001 10.407l4.561 3.968h-12.5l4.561-3.968 1.689 1.468 1.689-1.468zM3.752 5c-0.692 0-1.252 0.559-1.252 1.246v7.507c0 0.688 0.556 1.246 1.252 1.246h13.121c0.692 0 1.252-0.559 1.252-1.246v-7.507c0-0.688-0.556-1.246-1.252-1.246h-13.121zM10.313 11.063l-6.25-5.438h12.5l-6.25 5.438z"></path>
</svg>
