<!-- Generated by IcoMoon.io -->
<svg version="1.1" xmlns="http://www.w3.org/2000/svg" width="20" height="20" viewBox="0 0 20 20">
<title>myspace</title>
<path d="M16.503 10.228c1.757 0 3.182-1.419 3.182-3.17s-1.425-3.163-3.182-3.163c-1.758 0-3.182 1.425-3.182 3.175s1.424 3.176 3.182 3.176zM9.333 10.816c1.581 0 2.863-1.277 2.863-2.853s-1.282-2.854-2.863-2.854-2.863 1.288-2.863 2.863c0 1.576 1.279 2.862 2.863 2.862zM2.833 11.345c1.425 0 2.577-1.15 2.577-2.568 0-1.42-1.162-2.57-2.587-2.57-1.422 0-2.573 1.15-2.573 2.575 0 1.417 1.156 2.565 2.579 2.565zM2.833 11.932c-1.633 0-2.833 1.431-2.833 2.912v0.997c0 0.142 0.115 0.258 0.258 0.258h5.15c0.143 0 0.258-0.117 0.258-0.258v-0.997c0-1.482-1.197-2.917-2.832-2.917zM9.333 11.466c-1.816 0-3.15 1.596-3.15 3.242v1.109c0 0.157 0.13 0.287 0.288 0.287h5.726c0.157 0 0.285-0.129 0.285-0.287v-1.109c0-1.647-1.332-3.242-3.148-3.242zM16.503 10.952c-2.018 0-3.498 1.772-3.498 3.602v1.231c0 0.175 0.143 0.317 0.318 0.317h6.358c0.175 0 0.319-0.143 0.319-0.317v-1.231c-0.001-1.831-1.48-3.602-3.498-3.602z"></path>
</svg>
