<!-- Generated by IcoMoon.io -->
<svg version="1.1" xmlns="http://www.w3.org/2000/svg" width="20" height="20" viewBox="0 0 20 20">
<title>people_alt</title>
<path d="M7.5 10.82q1.25 0 2.734 0.352t2.715 1.172 1.23 1.836v2.5h-13.359v-2.5q0-1.016 1.23-1.836t2.715-1.172 2.734-0.352zM12.5 10q-0.508 0-1.094-0.195 1.094-1.289 1.094-3.125 0-0.742-0.313-1.68t-0.781-1.484q0.586-0.195 1.094-0.195 1.367 0 2.344 0.996t0.977 2.363-0.977 2.344-2.344 0.977zM4.18 6.68q0-1.367 0.977-2.363t2.344-0.996 2.344 0.996 0.977 2.363-0.977 2.344-2.344 0.977-2.344-0.977-0.977-2.344zM13.906 10.938q2.070 0.313 3.672 1.152t1.602 2.090v2.5h-3.359v-2.5q0-1.914-1.914-3.242z"></path>
</svg>
