<!-- Generated by IcoMoon.io -->
<svg version="1.1" xmlns="http://www.w3.org/2000/svg" width="20" height="20" viewBox="0 0 20 20">
<title>plus-circle</title>
<path d="M19.167 10c0-2.531-1.027-4.824-2.685-6.482s-3.951-2.685-6.482-2.685-4.824 1.027-6.482 2.685-2.685 3.951-2.685 6.482 1.027 4.824 2.685 6.482 3.951 2.685 6.482 2.685 4.824-1.027 6.482-2.685 2.685-3.951 2.685-6.482zM17.5 10c0 2.072-0.838 3.945-2.197 5.303s-3.232 2.197-5.303 2.197-3.945-0.838-5.303-2.197-2.197-3.232-2.197-5.303 0.838-3.945 2.197-5.303 3.232-2.197 5.303-2.197 3.945 0.838 5.303 2.197 2.197 3.232 2.197 5.303zM6.667 10.833h2.5v2.5c0 0.46 0.373 0.833 0.833 0.833s0.833-0.373 0.833-0.833v-2.5h2.5c0.46 0 0.833-0.373 0.833-0.833s-0.373-0.833-0.833-0.833h-2.5v-2.5c0-0.46-0.373-0.833-0.833-0.833s-0.833 0.373-0.833 0.833v2.5h-2.5c-0.46 0-0.833 0.373-0.833 0.833s0.373 0.833 0.833 0.833z"></path>
</svg>
