<!-- Generated by IcoMoon.io -->
<svg version="1.1" xmlns="http://www.w3.org/2000/svg" width="20" height="20" viewBox="0 0 20 20">
<title>th-menu-outline</title>
<path d="M15.833 15c0.458 0 0.833 0.375 0.833 0.833s-0.375 0.833-0.833 0.833h-11.667c-0.458 0-0.833-0.375-0.833-0.833s0.375-0.833 0.833-0.833h11.667zM15.833 13.333h-11.667c-1.378 0-2.5 1.122-2.5 2.5s1.122 2.5 2.5 2.5h11.667c1.378 0 2.5-1.122 2.5-2.5s-1.122-2.5-2.5-2.5z"></path>
<path d="M15.833 9.167c0.458 0 0.833 0.375 0.833 0.833s-0.375 0.833-0.833 0.833h-11.667c-0.458 0-0.833-0.375-0.833-0.833s0.375-0.833 0.833-0.833h11.667zM15.833 7.5h-11.667c-1.378 0-2.5 1.122-2.5 2.5s1.122 2.5 2.5 2.5h11.667c1.378 0 2.5-1.122 2.5-2.5s-1.122-2.5-2.5-2.5z"></path>
<path d="M15.833 3.333c0.458 0 0.833 0.375 0.833 0.833s-0.375 0.833-0.833 0.833h-11.667c-0.458 0-0.833-0.375-0.833-0.833s0.375-0.833 0.833-0.833h11.667zM15.833 1.667h-11.667c-1.378 0-2.5 1.122-2.5 2.5s1.122 2.5 2.5 2.5h11.667c1.378 0 2.5-1.122 2.5-2.5s-1.122-2.5-2.5-2.5z"></path>
</svg>
