<!-- Generated by IcoMoon.io -->
<svg version="1.1" xmlns="http://www.w3.org/2000/svg" width="20" height="20" viewBox="0 0 20 20">
<title>triangle</title>
<path d="M9.608 6.49c0.034-0.057 0.085-0.111 0.154-0.153 0.109-0.066 0.233-0.082 0.348-0.053s0.218 0.099 0.283 0.206l3.897 6.505c0.032 0.055 0.055 0.123 0.059 0.2-0.007 0.169-0.055 0.272-0.13 0.349-0.083 0.085-0.197 0.137-0.319 0.139l-7.795-0c-0.070-0-0.148-0.019-0.221-0.062-0.11-0.064-0.184-0.165-0.214-0.279s-0.017-0.239 0.042-0.343zM8.818 6.017l-3.898 6.508c-0.194 0.336-0.233 0.713-0.142 1.054s0.313 0.648 0.643 0.839c0.214 0.123 0.449 0.184 0.679 0.185h7.798c0.386-0.004 0.73-0.163 0.977-0.415s0.398-0.6 0.394-0.981c-0.003-0.247-0.070-0.48-0.187-0.678l-3.9-6.511c-0.199-0.328-0.511-0.544-0.853-0.627s-0.718-0.037-1.044 0.161c-0.197 0.12-0.357 0.283-0.466 0.467z"></path>
</svg>
