<!-- Generated by IcoMoon.io -->
<svg version="1.1" xmlns="http://www.w3.org/2000/svg" width="20" height="20" viewBox="0 0 20 20">
<title>calendar1</title>
<path d="M16.875 19.375h-13.75c-0.69 0-1.25-0.56-1.25-1.25v-13.75c0-0.691 0.56-1.25 1.25-1.25h1.25v0.625c0 1.036 0.839 1.875 1.875 1.875s1.875-0.839 1.875-1.875v-0.625h3.75v0.625c0 1.036 0.84 1.875 1.875 1.875s1.875-0.839 1.875-1.875v-0.625h1.25c0.69 0 1.25 0.559 1.25 1.25v13.75c0 0.69-0.56 1.25-1.25 1.25zM16.875 7.5h-13.75v10.625h13.75v-10.625zM6.25 10.625h-1.875v-1.875h1.875v1.875zM6.25 13.75h-1.875v-1.875h1.875v1.875zM6.25 16.875h-1.875v-1.875h1.875v1.875zM9.375 10.625h-1.875v-1.875h1.875v1.875zM9.375 13.75h-1.875v-1.875h1.875v1.875zM9.375 16.875h-1.875v-1.875h1.875v1.875zM12.5 10.625h-1.875v-1.875h1.875v1.875zM12.5 13.75h-1.875v-1.875h1.875v1.875zM12.5 16.875h-1.875v-1.875h1.875v1.875zM15.625 10.625h-1.875v-1.875h1.875v1.875zM15.625 13.75h-1.875v-1.875h1.875v1.875zM15.625 16.875h-1.875v-1.875h1.875v1.875zM13.731 5c-0.68 0-1.231-0.551-1.231-1.231v-1.289c0-0.68 0.551-1.231 1.231-1.231s1.231 0.551 1.231 1.231v1.289c0 0.679-0.551 1.231-1.231 1.231zM6.231 5c-0.68 0-1.231-0.551-1.231-1.231v-1.289c0-0.68 0.551-1.231 1.231-1.231s1.231 0.551 1.231 1.231v1.289c0 0.679-0.551 1.231-1.231 1.231z"></path>
</svg>
