<!-- Generated by IcoMoon.io -->
<svg version="1.1" xmlns="http://www.w3.org/2000/svg" width="20" height="20" viewBox="0 0 20 20">
<title>calendar</title>
<path d="M18.334 1.875h-2.709v-1.25c0-0.346-0.279-0.625-0.625-0.625s-0.625 0.279-0.625 0.625v1.25h-3.75v-1.25c0-0.346-0.28-0.625-0.625-0.625s-0.625 0.279-0.625 0.625v1.25h-3.75v-1.25c0-0.346-0.28-0.625-0.625-0.625s-0.625 0.279-0.625 0.625v1.25h-2.708c-0.921 0-1.667 0.746-1.667 1.666v14.792c0 0.921 0.746 1.667 1.667 1.667h16.667c0.921 0 1.666-0.746 1.666-1.667v-14.792c0-0.921-0.746-1.666-1.666-1.666zM18.75 18.333c0 0.23-0.187 0.417-0.416 0.417h-16.667c-0.23 0-0.417-0.187-0.417-0.417v-14.792c0-0.229 0.187-0.416 0.417-0.416h2.708v1.25c0 0.346 0.28 0.625 0.625 0.625s0.625-0.279 0.625-0.625v-1.25h3.75v1.25c0 0.346 0.28 0.625 0.625 0.625s0.625-0.279 0.625-0.625v-1.25h3.75v1.25c0 0.346 0.279 0.625 0.625 0.625s0.625-0.279 0.625-0.625v-1.25h2.709c0.229 0 0.416 0.187 0.416 0.416v14.792zM4.375 7.5h2.5v1.875h-2.5zM4.375 10.625h2.5v1.875h-2.5zM4.375 13.75h2.5v1.875h-2.5zM8.75 13.75h2.5v1.875h-2.5zM8.75 10.625h2.5v1.875h-2.5zM8.75 7.5h2.5v1.875h-2.5zM13.125 13.75h2.5v1.875h-2.5zM13.125 10.625h2.5v1.875h-2.5zM13.125 7.5h2.5v1.875h-2.5z"></path>
</svg>
