<!-- Generated by IcoMoon.io -->
<svg version="1.1" xmlns="http://www.w3.org/2000/svg" width="20" height="20" viewBox="0 0 20 20">
<title>group</title>
<path d="M13.32 10.82q1.094 0 2.383 0.313t2.383 1.016 1.094 1.602v2.070h-5v-2.070q0-1.719-1.641-2.891 0.273-0.039 0.781-0.039zM6.68 10.82q1.094 0 2.383 0.313t2.363 1.016 1.074 1.602v2.070h-11.68v-2.070q0-0.898 1.094-1.602t2.383-1.016 2.383-0.313zM6.68 9.18q-1.016 0-1.758-0.742t-0.742-1.758 0.742-1.758 1.758-0.742 1.738 0.742 0.723 1.758-0.723 1.758-1.738 0.742zM13.32 9.18q-1.016 0-1.758-0.742t-0.742-1.758 0.742-1.758 1.758-0.742 1.758 0.742 0.742 1.758-0.742 1.758-1.758 0.742z"></path>
</svg>
