<!-- Generated by IcoMoon.io -->
<svg version="1.1" xmlns="http://www.w3.org/2000/svg" width="17" height="20" viewBox="0 0 17 20">
<title>podcast</title>
<path d="M11.094 13.304c0 0.737-0.078 1.473-0.19 2.199-0.167 1.161-0.335 2.355-0.614 3.493-0.201 0.815-0.96 1.004-1.696 1.004s-1.496-0.19-1.696-1.004c-0.279-1.138-0.446-2.333-0.614-3.493-0.112-0.725-0.19-1.462-0.19-2.199 0-1.507 1.217-1.875 2.5-1.875s2.5 0.368 2.5 1.875zM17.143 8.571c0 3.616-2.232 6.708-5.402 7.969-0.123 0.045-0.257-0.067-0.234-0.201 0.033-0.234 0.067-0.48 0.112-0.737 0.022-0.179 0.045-0.357 0.067-0.525 0.011-0.067 0.045-0.112 0.1-0.134 2.321-1.183 3.929-3.594 3.929-6.373 0-4.074-3.415-7.355-7.533-7.132-3.772 0.201-6.775 3.415-6.752 7.188 0.022 2.779 1.641 5.179 3.973 6.339 0.056 0.022 0.089 0.078 0.1 0.134 0.022 0.156 0.045 0.324 0.067 0.502 0.045 0.268 0.078 0.513 0.123 0.759 0.022 0.134-0.123 0.246-0.246 0.19-3.315-1.295-5.625-4.598-5.435-8.404 0.212-4.319 3.694-7.857 8.013-8.125 4.978-0.313 9.118 3.638 9.118 8.549zM11.094 8.214c0 1.384-1.116 2.5-2.5 2.5s-2.5-1.116-2.5-2.5 1.116-2.5 2.5-2.5 2.5 1.116 2.5 2.5zM14.308 8.571c0 1.842-0.882 3.493-2.232 4.531-0.112 0.089-0.268 0.011-0.29-0.134-0.033-0.313-0.123-0.681-0.324-1.027-0.045-0.067-0.033-0.156 0.033-0.223 0.848-0.781 1.384-1.897 1.384-3.147 0-2.522-2.199-4.542-4.777-4.263-1.975 0.223-3.583 1.853-3.772 3.839-0.145 1.406 0.413 2.701 1.362 3.571 0.067 0.067 0.078 0.156 0.033 0.223-0.201 0.346-0.29 0.714-0.324 1.038-0.022 0.134-0.179 0.212-0.29 0.123-1.384-1.071-2.266-2.757-2.232-4.654 0.067-2.969 2.478-5.446 5.435-5.58 3.281-0.156 5.993 2.455 5.993 5.703z"></path>
</svg>
