<!-- Generated by IcoMoon.io -->
<svg version="1.1" xmlns="http://www.w3.org/2000/svg" width="20" height="20" viewBox="0 0 20 20">
<title>target</title>
<path d="M10 5c-2.761 0-5 2.239-5 5s2.239 5 5 5 5-2.239 5-5-2.239-5-5-5zM10 13.75c-2.071 0-3.75-1.679-3.75-3.75s1.679-3.75 3.75-3.75 3.75 1.679 3.75 3.75-1.679 3.75-3.75 3.75zM10 0c-5.523 0-10 4.477-10 10s4.477 10 10 10 10-4.477 10-10-4.477-10-10-10zM10 17.5c-4.142 0-7.5-3.358-7.5-7.5s3.358-7.5 7.5-7.5 7.5 3.358 7.5 7.5-3.358 7.5-7.5 7.5zM10 8.125c-1.036 0-1.875 0.839-1.875 1.875s0.839 1.875 1.875 1.875 1.875-0.839 1.875-1.875-0.839-1.875-1.875-1.875z"></path>
</svg>
