<svg aria-hidden="true" style="position: absolute; width: 0; height: 0; overflow: hidden;" version="1.1" xmlns="http://www.w3.org/2000/svg" xmlns:xlink="http://www.w3.org/1999/xlink">
<defs>
<symbol id="icon-calendar" viewBox="0 0 20 20">
<path d="M18.334 1.875h-2.709v-1.25c0-0.346-0.279-0.625-0.625-0.625s-0.625 0.279-0.625 0.625v1.25h-3.75v-1.25c0-0.346-0.28-0.625-0.625-0.625s-0.625 0.279-0.625 0.625v1.25h-3.75v-1.25c0-0.346-0.28-0.625-0.625-0.625s-0.625 0.279-0.625 0.625v1.25h-2.708c-0.921 0-1.667 0.746-1.667 1.666v14.792c0 0.921 0.746 1.667 1.667 1.667h16.667c0.921 0 1.666-0.746 1.666-1.667v-14.792c0-0.921-0.746-1.666-1.666-1.666zM18.75 18.333c0 0.23-0.187 0.417-0.416 0.417h-16.667c-0.23 0-0.417-0.187-0.417-0.417v-14.792c0-0.229 0.187-0.416 0.417-0.416h2.708v1.25c0 0.346 0.28 0.625 0.625 0.625s0.625-0.279 0.625-0.625v-1.25h3.75v1.25c0 0.346 0.28 0.625 0.625 0.625s0.625-0.279 0.625-0.625v-1.25h3.75v1.25c0 0.346 0.279 0.625 0.625 0.625s0.625-0.279 0.625-0.625v-1.25h2.709c0.229 0 0.416 0.187 0.416 0.416v14.792zM4.375 7.5h2.5v1.875h-2.5zM4.375 10.625h2.5v1.875h-2.5zM4.375 13.75h2.5v1.875h-2.5zM8.75 13.75h2.5v1.875h-2.5zM8.75 10.625h2.5v1.875h-2.5zM8.75 7.5h2.5v1.875h-2.5zM13.125 13.75h2.5v1.875h-2.5zM13.125 10.625h2.5v1.875h-2.5zM13.125 7.5h2.5v1.875h-2.5z"></path>
</symbol>
<symbol id="icon-calendar1" viewBox="0 0 20 20">
<path d="M16.875 19.375h-13.75c-0.69 0-1.25-0.56-1.25-1.25v-13.75c0-0.691 0.56-1.25 1.25-1.25h1.25v0.625c0 1.036 0.839 1.875 1.875 1.875s1.875-0.839 1.875-1.875v-0.625h3.75v0.625c0 1.036 0.84 1.875 1.875 1.875s1.875-0.839 1.875-1.875v-0.625h1.25c0.69 0 1.25 0.559 1.25 1.25v13.75c0 0.69-0.56 1.25-1.25 1.25zM16.875 7.5h-13.75v10.625h13.75v-10.625zM6.25 10.625h-1.875v-1.875h1.875v1.875zM6.25 13.75h-1.875v-1.875h1.875v1.875zM6.25 16.875h-1.875v-1.875h1.875v1.875zM9.375 10.625h-1.875v-1.875h1.875v1.875zM9.375 13.75h-1.875v-1.875h1.875v1.875zM9.375 16.875h-1.875v-1.875h1.875v1.875zM12.5 10.625h-1.875v-1.875h1.875v1.875zM12.5 13.75h-1.875v-1.875h1.875v1.875zM12.5 16.875h-1.875v-1.875h1.875v1.875zM15.625 10.625h-1.875v-1.875h1.875v1.875zM15.625 13.75h-1.875v-1.875h1.875v1.875zM15.625 16.875h-1.875v-1.875h1.875v1.875zM13.731 5c-0.68 0-1.231-0.551-1.231-1.231v-1.289c0-0.68 0.551-1.231 1.231-1.231s1.231 0.551 1.231 1.231v1.289c0 0.679-0.551 1.231-1.231 1.231zM6.231 5c-0.68 0-1.231-0.551-1.231-1.231v-1.289c0-0.68 0.551-1.231 1.231-1.231s1.231 0.551 1.231 1.231v1.289c0 0.679-0.551 1.231-1.231 1.231z"></path>
</symbol>
<symbol id="icon-add" viewBox="0 0 20 20">
<path d="M16.563 16.875h-1.875c-0.172 0-0.313-0.14-0.313-0.313s0.14-0.313 0.313-0.313h1.563v-1.563c0-0.172 0.14-0.313 0.313-0.313s0.313 0.14 0.313 0.313v1.875c0 0.172-0.141 0.313-0.313 0.313zM16.563 13.125c-0.172 0-0.313-0.14-0.313-0.313v-1.875c0-0.172 0.14-0.313 0.313-0.313s0.313 0.14 0.313 0.313v1.875c0 0.172-0.141 0.313-0.313 0.313zM16.563 9.375c-0.172 0-0.313-0.14-0.313-0.313v-1.875c0-0.172 0.14-0.313 0.313-0.313s0.313 0.14 0.313 0.313v1.875c0 0.172-0.141 0.313-0.313 0.313zM16.563 5.625c-0.172 0-0.313-0.14-0.313-0.313v-1.563h-1.563c-0.172 0-0.313-0.14-0.313-0.313s0.14-0.313 0.313-0.313h1.875c0.172 0 0.313 0.14 0.313 0.313v1.875c0 0.172-0.141 0.313-0.313 0.313zM12.813 16.875h-1.875c-0.172 0-0.313-0.14-0.313-0.313s0.14-0.313 0.313-0.313h1.875c0.172 0 0.313 0.14 0.313 0.313s-0.141 0.313-0.313 0.313zM12.813 3.75h-1.875c-0.172 0-0.313-0.14-0.313-0.313s0.14-0.313 0.313-0.313h1.875c0.172 0 0.313 0.14 0.313 0.313s-0.141 0.313-0.313 0.313zM12.461 9.375c0.345 0 0.625 0.279 0.625 0.625s-0.28 0.625-0.625 0.625h-1.875v1.875c0 0.345-0.28 0.625-0.625 0.625s-0.625-0.28-0.625-0.625v-1.875h-1.875c-0.345 0-0.625-0.28-0.625-0.625s0.279-0.625 0.625-0.625h1.875v-1.875c0-0.346 0.279-0.625 0.625-0.625s0.625 0.279 0.625 0.625v1.875h1.875zM9.063 3.75h-1.875c-0.172 0-0.313-0.14-0.313-0.313s0.14-0.313 0.313-0.313h1.875c0.172 0 0.313 0.14 0.313 0.313s-0.141 0.313-0.313 0.313zM5.313 16.875h-1.875c-0.172 0-0.313-0.14-0.313-0.313v-1.875c0-0.172 0.14-0.313 0.313-0.313s0.313 0.14 0.313 0.313v1.563h1.563c0.172 0 0.313 0.14 0.313 0.313s-0.14 0.313-0.313 0.313zM5.313 3.75h-1.563v1.563c0 0.172-0.14 0.313-0.313 0.313s-0.313-0.14-0.313-0.313v-1.875c0-0.172 0.14-0.313 0.313-0.313h1.875c0.172 0 0.313 0.14 0.313 0.313s-0.14 0.313-0.313 0.313zM3.438 6.875c0.172 0 0.313 0.14 0.313 0.313v1.875c0 0.172-0.14 0.313-0.313 0.313s-0.313-0.14-0.313-0.313v-1.875c0-0.172 0.14-0.313 0.313-0.313zM3.438 10.625c0.172 0 0.313 0.14 0.313 0.313v1.875c0 0.172-0.14 0.313-0.313 0.313s-0.313-0.14-0.313-0.313v-1.875c0-0.172 0.14-0.313 0.313-0.313zM7.188 16.25h1.875c0.172 0 0.313 0.14 0.313 0.313s-0.141 0.313-0.313 0.313h-1.875c-0.172 0-0.313-0.14-0.313-0.313s0.14-0.313 0.313-0.313z"></path>
</symbol>
<symbol id="icon-flag" viewBox="0 0 20 20">
<path d="M5 6.563v-4.063c0 0 1.86-1.398 5 0s5 0 5 0v6.875c0 0-1.861 1.367-5 0-2.070-0.901-3.584-0.614-4.375-0.314v9.064h-0.625v-11.563zM9.7 3.063c-2.561-1.126-4.075-0.188-4.075-0.188v5.524c0 0 1.971-0.792 4.61 0.403 2.472 1.119 4.151 0.213 4.151 0.213v-5.577c0 0-1.889 0.855-4.686-0.375v0 0z"></path>
</symbol>
<symbol id="icon-mail-envelope-closed" viewBox="0 0 20 20">
<path d="M3.322 5.796l4.834 4.204-4.836 4.205c-0.121-0.115-0.196-0.278-0.196-0.459v-7.491c0-0.181 0.076-0.343 0.197-0.458zM17.304 5.795c0.121 0.115 0.196 0.278 0.196 0.459v7.491c0 0.181-0.076 0.343-0.197 0.458l-4.834-4.204 4.836-4.205zM12.001 10.407l4.561 3.968h-12.5l4.561-3.968 1.689 1.468 1.689-1.468zM3.752 5c-0.692 0-1.252 0.559-1.252 1.246v7.507c0 0.688 0.556 1.246 1.252 1.246h13.121c0.692 0 1.252-0.559 1.252-1.246v-7.507c0-0.688-0.556-1.246-1.252-1.246h-13.121zM10.313 11.063l-6.25-5.438h12.5l-6.25 5.438z"></path>
</symbol>
<symbol id="icon-mail-envelope-open" viewBox="0 0 20 20">
<path d="M10.313 1.875l-7.813 6.875v8.754c0 0.688 0.556 1.246 1.252 1.246h13.121c0.692 0 1.252-0.559 1.252-1.246v-8.754l-7.813-6.875zM8.438 14.375h3.75l4.375 3.75h-12.5l4.375-3.75zM10.313 2.688l6.875 6.063-5.625 5h-2.5l-5.625-5 6.875-6.063zM17.303 17.953l-4.803-4.193 5-4.386v8.125c0 0.177-0.076 0.339-0.197 0.453v0 0zM3.322 17.953v0 0c-0.121-0.115-0.197-0.276-0.197-0.453v-8.125l5 4.386-4.803 4.193z"></path>
</symbol>
<symbol id="icon-dots-three-horizontal" viewBox="0 0 20 20">
<path d="M9.853 7.921c-1.148 0-2.080 0.931-2.080 2.079s0.932 2.079 2.080 2.079c1.148 0 2.078-0.931 2.078-2.079s-0.93-2.079-2.078-2.079zM3.239 7.921c-1.148 0-2.080 0.931-2.080 2.079s0.932 2.079 2.080 2.079c1.148 0 2.078-0.932 2.078-2.079s-0.93-2.079-2.078-2.079zM16.468 7.921c-1.148 0-2.080 0.931-2.080 2.079s0.932 2.079 2.080 2.079c1.148 0 2.078-0.931 2.078-2.079s-0.93-2.079-2.078-2.079z"></path>
</symbol>
<symbol id="icon-myspace" viewBox="0 0 20 20">
<path d="M16.503 10.228c1.757 0 3.182-1.419 3.182-3.17s-1.425-3.163-3.182-3.163c-1.758 0-3.182 1.425-3.182 3.175s1.424 3.176 3.182 3.176zM9.333 10.816c1.581 0 2.863-1.277 2.863-2.853s-1.282-2.854-2.863-2.854-2.863 1.288-2.863 2.863c0 1.576 1.279 2.862 2.863 2.862zM2.833 11.345c1.425 0 2.577-1.15 2.577-2.568 0-1.42-1.162-2.57-2.587-2.57-1.422 0-2.573 1.15-2.573 2.575 0 1.417 1.156 2.565 2.579 2.565zM2.833 11.932c-1.633 0-2.833 1.431-2.833 2.912v0.997c0 0.142 0.115 0.258 0.258 0.258h5.15c0.143 0 0.258-0.117 0.258-0.258v-0.997c0-1.482-1.197-2.917-2.832-2.917zM9.333 11.466c-1.816 0-3.15 1.596-3.15 3.242v1.109c0 0.157 0.13 0.287 0.288 0.287h5.726c0.157 0 0.285-0.129 0.285-0.287v-1.109c0-1.647-1.332-3.242-3.148-3.242zM16.503 10.952c-2.018 0-3.498 1.772-3.498 3.602v1.231c0 0.175 0.143 0.317 0.318 0.317h6.358c0.175 0 0.319-0.143 0.319-0.317v-1.231c-0.001-1.831-1.48-3.602-3.498-3.602z"></path>
</symbol>
<symbol id="icon-arrow-right" viewBox="0 0 20 20">
<path d="M12.134 17.134l6.25-6.25c0.488-0.488 0.488-1.28 0-1.768l-6.25-6.25c-0.488-0.488-1.28-0.488-1.768 0s-0.488 1.28 0 1.768l4.116 4.116h-11.982c-0.69 0-1.25 0.56-1.25 1.25s0.56 1.25 1.25 1.25h11.982l-4.116 4.116c-0.244 0.244-0.366 0.564-0.366 0.884s0.122 0.64 0.366 0.884c0.488 0.488 1.28 0.488 1.768 0z"></path>
</symbol>
<symbol id="icon-arrow-left" viewBox="0 0 20 20">
<path d="M7.866 17.134l-6.25-6.25c-0.488-0.488-0.488-1.28 0-1.768l6.25-6.25c0.488-0.488 1.28-0.488 1.768 0s0.488 1.28 0 1.768l-4.116 4.116h11.982c0.69 0 1.25 0.56 1.25 1.25s-0.56 1.25-1.25 1.25h-11.982l4.116 4.116c0.244 0.244 0.366 0.564 0.366 0.884s-0.122 0.64-0.366 0.884c-0.488 0.488-1.28 0.488-1.768 0z"></path>
</symbol>
<symbol id="icon-circle-down" viewBox="0 0 20 20">
<path d="M20 10c0-5.523-4.477-10-10-10s-10 4.477-10 10 4.477 10 10 10 10-4.477 10-10zM1.875 10c0-4.487 3.638-8.125 8.125-8.125s8.125 3.638 8.125 8.125-3.638 8.125-8.125 8.125-8.125-3.638-8.125-8.125z"></path>
<path d="M6.196 6.929l-1.768 1.768 5.571 5.571 5.571-5.571-1.768-1.768-3.804 3.804z"></path>
</symbol>
<symbol id="icon-circle-up" viewBox="0 0 20 20">
<path d="M0 10c0 5.523 4.477 10 10 10s10-4.477 10-10-4.477-10-10-10-10 4.477-10 10zM18.125 10c0 4.487-3.638 8.125-8.125 8.125s-8.125-3.638-8.125-8.125 3.638-8.125 8.125-8.125 8.125 3.638 8.125 8.125z"></path>
<path d="M13.804 13.071l1.768-1.768-5.571-5.571-5.571 5.571 1.768 1.768 3.804-3.804z"></path>
</symbol>
<symbol id="icon-flickr" viewBox="0 0 20 20">
<path d="M18.125 0h-16.25c-1.031 0-1.875 0.844-1.875 1.875v16.25c0 1.031 0.844 1.875 1.875 1.875h16.25c1.031 0 1.875-0.844 1.875-1.875v-16.25c0-1.031-0.844-1.875-1.875-1.875zM5.625 13.125c-1.727 0-3.125-1.398-3.125-3.125s1.398-3.125 3.125-3.125 3.125 1.398 3.125 3.125-1.398 3.125-3.125 3.125zM14.375 13.125c-1.727 0-3.125-1.398-3.125-3.125s1.398-3.125 3.125-3.125c1.727 0 3.125 1.398 3.125 3.125s-1.398 3.125-3.125 3.125z"></path>
</symbol>
<symbol id="icon-youtube" viewBox="0 0 20 20">
<path d="M19.801 6c0 0-0.195-1.379-0.797-1.984-0.762-0.797-1.613-0.801-2.004-0.848-2.797-0.203-6.996-0.203-6.996-0.203h-0.008c0 0-4.199 0-6.996 0.203-0.391 0.047-1.242 0.051-2.004 0.848-0.602 0.605-0.793 1.984-0.793 1.984s-0.199 1.617-0.199 3.238v1.516c0 1.617 0.199 3.238 0.199 3.238s0.195 1.379 0.793 1.984c0.762 0.797 1.762 0.77 2.207 0.855 1.602 0.152 6.801 0.199 6.801 0.199s4.203-0.008 7-0.207c0.391-0.047 1.242-0.051 2.004-0.848 0.602-0.605 0.797-1.984 0.797-1.984s0.199-1.617 0.199-3.238v-1.516c-0.004-1.617-0.203-3.238-0.203-3.238zM7.934 12.594v-5.621l5.402 2.82-5.402 2.801z"></path>
</symbol>
<symbol id="icon-facebook" viewBox="0 0 20 20">
<path d="M11.875 3.75h3.125v-3.75h-3.125c-2.412 0-4.375 1.963-4.375 4.375v1.875h-2.5v3.75h2.5v10h3.75v-10h3.125l0.625-3.75h-3.75v-1.875c0-0.339 0.286-0.625 0.625-0.625z"></path>
</symbol>
<symbol id="icon-circle-full" viewBox="0 0 20 20">
<path d="M10 20c-5.522 0-10-4.478-10-10s4.478-10 10-10 10 4.478 10 10-4.478 10-10 10zM10 2.5c-4.142 0-7.5 3.358-7.5 7.5s3.358 7.5 7.5 7.5 7.5-3.358 7.5-7.5-3.358-7.5-7.5-7.5zM10 15c-2.761 0-5-2.239-5-5s2.239-5 5-5 5 2.239 5 5-2.239 5-5 5z"></path>
</symbol>
<symbol id="icon-target" viewBox="0 0 20 20">
<path d="M10 5c-2.761 0-5 2.239-5 5s2.239 5 5 5 5-2.239 5-5-2.239-5-5-5zM10 13.75c-2.071 0-3.75-1.679-3.75-3.75s1.679-3.75 3.75-3.75 3.75 1.679 3.75 3.75-1.679 3.75-3.75 3.75zM10 0c-5.523 0-10 4.477-10 10s4.477 10 10 10 10-4.477 10-10-4.477-10-10-10zM10 17.5c-4.142 0-7.5-3.358-7.5-7.5s3.358-7.5 7.5-7.5 7.5 3.358 7.5 7.5-3.358 7.5-7.5 7.5zM10 8.125c-1.036 0-1.875 0.839-1.875 1.875s0.839 1.875 1.875 1.875 1.875-0.839 1.875-1.875-0.839-1.875-1.875-1.875z"></path>
</symbol>
<symbol id="icon-triangle" viewBox="0 0 20 20">
<path d="M9.608 6.49c0.034-0.057 0.085-0.111 0.154-0.153 0.109-0.066 0.233-0.082 0.348-0.053s0.218 0.099 0.283 0.206l3.897 6.505c0.032 0.055 0.055 0.123 0.059 0.2-0.007 0.169-0.055 0.272-0.13 0.349-0.083 0.085-0.197 0.137-0.319 0.139l-7.795-0c-0.070-0-0.148-0.019-0.221-0.062-0.11-0.064-0.184-0.165-0.214-0.279s-0.017-0.239 0.042-0.343zM8.818 6.017l-3.898 6.508c-0.194 0.336-0.233 0.713-0.142 1.054s0.313 0.648 0.643 0.839c0.214 0.123 0.449 0.184 0.679 0.185h7.798c0.386-0.004 0.73-0.163 0.977-0.415s0.398-0.6 0.394-0.981c-0.003-0.247-0.070-0.48-0.187-0.678l-3.9-6.511c-0.199-0.328-0.511-0.544-0.853-0.627s-0.718-0.037-1.044 0.161c-0.197 0.12-0.357 0.283-0.466 0.467z"></path>
</symbol>
<symbol id="icon-magnifying-glass" viewBox="0 0 20 20">
<path d="M17.545 15.467l-3.779-3.779c0.57-0.935 0.898-2.035 0.898-3.21 0-3.417-2.961-6.377-6.378-6.377s-6.186 2.769-6.186 6.186c0 3.416 2.961 6.377 6.377 6.377 1.137 0 2.2-0.309 3.115-0.844l3.799 3.801c0.372 0.371 0.975 0.371 1.346 0l0.943-0.943c0.371-0.371 0.236-0.84-0.135-1.211zM4.004 8.287c0-2.366 1.917-4.283 4.282-4.283s4.474 2.107 4.474 4.474c0 2.365-1.918 4.283-4.283 4.283s-4.473-2.109-4.473-4.474z"></path>
</symbol>
<symbol id="icon-th-menu-outline" viewBox="0 0 20 20">
<path d="M15.833 15c0.458 0 0.833 0.375 0.833 0.833s-0.375 0.833-0.833 0.833h-11.667c-0.458 0-0.833-0.375-0.833-0.833s0.375-0.833 0.833-0.833h11.667zM15.833 13.333h-11.667c-1.378 0-2.5 1.122-2.5 2.5s1.122 2.5 2.5 2.5h11.667c1.378 0 2.5-1.122 2.5-2.5s-1.122-2.5-2.5-2.5z"></path>
<path d="M15.833 9.167c0.458 0 0.833 0.375 0.833 0.833s-0.375 0.833-0.833 0.833h-11.667c-0.458 0-0.833-0.375-0.833-0.833s0.375-0.833 0.833-0.833h11.667zM15.833 7.5h-11.667c-1.378 0-2.5 1.122-2.5 2.5s1.122 2.5 2.5 2.5h11.667c1.378 0 2.5-1.122 2.5-2.5s-1.122-2.5-2.5-2.5z"></path>
<path d="M15.833 3.333c0.458 0 0.833 0.375 0.833 0.833s-0.375 0.833-0.833 0.833h-11.667c-0.458 0-0.833-0.375-0.833-0.833s0.375-0.833 0.833-0.833h11.667zM15.833 1.667h-11.667c-1.378 0-2.5 1.122-2.5 2.5s1.122 2.5 2.5 2.5h11.667c1.378 0 2.5-1.122 2.5-2.5s-1.122-2.5-2.5-2.5z"></path>
</symbol>
<symbol id="icon-people_alt" viewBox="0 0 20 20">
<path d="M7.5 10.82q1.25 0 2.734 0.352t2.715 1.172 1.23 1.836v2.5h-13.359v-2.5q0-1.016 1.23-1.836t2.715-1.172 2.734-0.352zM12.5 10q-0.508 0-1.094-0.195 1.094-1.289 1.094-3.125 0-0.742-0.313-1.68t-0.781-1.484q0.586-0.195 1.094-0.195 1.367 0 2.344 0.996t0.977 2.363-0.977 2.344-2.344 0.977zM4.18 6.68q0-1.367 0.977-2.363t2.344-0.996 2.344 0.996 0.977 2.363-0.977 2.344-2.344 0.977-2.344-0.977-0.977-2.344zM13.906 10.938q2.070 0.313 3.672 1.152t1.602 2.090v2.5h-3.359v-2.5q0-1.914-1.914-3.242z"></path>
</symbol>
<symbol id="icon-group" viewBox="0 0 20 20">
<path d="M13.32 10.82q1.094 0 2.383 0.313t2.383 1.016 1.094 1.602v2.070h-5v-2.070q0-1.719-1.641-2.891 0.273-0.039 0.781-0.039zM6.68 10.82q1.094 0 2.383 0.313t2.363 1.016 1.074 1.602v2.070h-11.68v-2.070q0-0.898 1.094-1.602t2.383-1.016 2.383-0.313zM6.68 9.18q-1.016 0-1.758-0.742t-0.742-1.758 0.742-1.758 1.758-0.742 1.738 0.742 0.723 1.758-0.723 1.758-1.738 0.742zM13.32 9.18q-1.016 0-1.758-0.742t-0.742-1.758 0.742-1.758 1.758-0.742 1.758 0.742 0.742 1.758-0.742 1.758-1.758 0.742z"></path>
</symbol>
<symbol id="icon-add_shopping_cart" viewBox="0 0 20 20">
<path d="M5.977 12.305q0 0.195 0.195 0.195h9.648v1.68h-10q-0.664 0-1.152-0.508t-0.488-1.172q0-0.391 0.195-0.781l1.133-2.070-3.008-6.328h-1.68v-1.641h2.734q0.781 1.641 1.563 3.32 0.195 0.352 0.898 1.855t1.094 2.324h5.859q2.93-5.313 3.203-5.859l1.445 0.82-3.203 5.82q-0.469 0.859-1.445 0.859h-6.211l-0.742 1.367zM14.18 15q0.664 0 1.152 0.508t0.488 1.172-0.488 1.152-1.152 0.488-1.172-0.488-0.508-1.152 0.508-1.172 1.172-0.508zM5.82 15q0.664 0 1.172 0.508t0.508 1.172-0.508 1.152-1.172 0.488-1.152-0.488-0.488-1.152 0.488-1.172 1.152-0.508zM9.18 7.5v-2.5h-2.5v-1.68h2.5v-2.5h1.641v2.5h2.5v1.68h-2.5v2.5h-1.641z"></path>
</symbol>
<symbol id="icon-add_circle" viewBox="0 0 20 20">
<path d="M14.18 10.82v-1.641h-3.359v-3.359h-1.641v3.359h-3.359v1.641h3.359v3.359h1.641v-3.359h3.359zM10 1.68q3.438 0 5.879 2.441t2.441 5.879-2.441 5.879-5.879 2.441-5.879-2.441-2.441-5.879 2.441-5.879 5.879-2.441z"></path>
</symbol>
<symbol id="icon-menu" viewBox="0 0 20 20">
<path d="M2.5 5h15v1.68h-15v-1.68zM2.5 10.82v-1.641h15v1.641h-15zM2.5 15v-1.68h15v1.68h-15z"></path>
</symbol>
<symbol id="icon-plus-circle" viewBox="0 0 20 20">
<path d="M19.167 10c0-2.531-1.027-4.824-2.685-6.482s-3.951-2.685-6.482-2.685-4.824 1.027-6.482 2.685-2.685 3.951-2.685 6.482 1.027 4.824 2.685 6.482 3.951 2.685 6.482 2.685 4.824-1.027 6.482-2.685 2.685-3.951 2.685-6.482zM17.5 10c0 2.072-0.838 3.945-2.197 5.303s-3.232 2.197-5.303 2.197-3.945-0.838-5.303-2.197-2.197-3.232-2.197-5.303 0.838-3.945 2.197-5.303 3.232-2.197 5.303-2.197 3.945 0.838 5.303 2.197 2.197 3.232 2.197 5.303zM6.667 10.833h2.5v2.5c0 0.46 0.373 0.833 0.833 0.833s0.833-0.373 0.833-0.833v-2.5h2.5c0.46 0 0.833-0.373 0.833-0.833s-0.373-0.833-0.833-0.833h-2.5v-2.5c0-0.46-0.373-0.833-0.833-0.833s-0.833 0.373-0.833 0.833v2.5h-2.5c-0.46 0-0.833 0.373-0.833 0.833s0.373 0.833 0.833 0.833z"></path>
</symbol>
<symbol id="icon-podcast" viewBox="0 0 17 20">
<path d="M11.094 13.304c0 0.737-0.078 1.473-0.19 2.199-0.167 1.161-0.335 2.355-0.614 3.493-0.201 0.815-0.96 1.004-1.696 1.004s-1.496-0.19-1.696-1.004c-0.279-1.138-0.446-2.333-0.614-3.493-0.112-0.725-0.19-1.462-0.19-2.199 0-1.507 1.217-1.875 2.5-1.875s2.5 0.368 2.5 1.875zM17.143 8.571c0 3.616-2.232 6.708-5.402 7.969-0.123 0.045-0.257-0.067-0.234-0.201 0.033-0.234 0.067-0.48 0.112-0.737 0.022-0.179 0.045-0.357 0.067-0.525 0.011-0.067 0.045-0.112 0.1-0.134 2.321-1.183 3.929-3.594 3.929-6.373 0-4.074-3.415-7.355-7.533-7.132-3.772 0.201-6.775 3.415-6.752 7.188 0.022 2.779 1.641 5.179 3.973 6.339 0.056 0.022 0.089 0.078 0.1 0.134 0.022 0.156 0.045 0.324 0.067 0.502 0.045 0.268 0.078 0.513 0.123 0.759 0.022 0.134-0.123 0.246-0.246 0.19-3.315-1.295-5.625-4.598-5.435-8.404 0.212-4.319 3.694-7.857 8.013-8.125 4.978-0.313 9.118 3.638 9.118 8.549zM11.094 8.214c0 1.384-1.116 2.5-2.5 2.5s-2.5-1.116-2.5-2.5 1.116-2.5 2.5-2.5 2.5 1.116 2.5 2.5zM14.308 8.571c0 1.842-0.882 3.493-2.232 4.531-0.112 0.089-0.268 0.011-0.29-0.134-0.033-0.313-0.123-0.681-0.324-1.027-0.045-0.067-0.033-0.156 0.033-0.223 0.848-0.781 1.384-1.897 1.384-3.147 0-2.522-2.199-4.542-4.777-4.263-1.975 0.223-3.583 1.853-3.772 3.839-0.145 1.406 0.413 2.701 1.362 3.571 0.067 0.067 0.078 0.156 0.033 0.223-0.201 0.346-0.29 0.714-0.324 1.038-0.022 0.134-0.179 0.212-0.29 0.123-1.384-1.071-2.266-2.757-2.232-4.654 0.067-2.969 2.478-5.446 5.435-5.58 3.281-0.156 5.993 2.455 5.993 5.703z"></path>
</symbol>
<symbol id="icon-facebook1" viewBox="0 0 12 20">
<path d="M10.703 0.134v2.946h-1.752c-1.373 0-1.629 0.658-1.629 1.607v2.109h3.27l-0.435 3.304h-2.835v8.471h-3.415v-8.471h-2.846v-3.304h2.846v-2.433c0-2.824 1.73-4.364 4.252-4.364 1.205 0 2.243 0.089 2.545 0.134z"></path>
</symbol>
<symbol id="icon-snowflake-o" viewBox="0 0 19 20">
<path d="M17.478 12.467l-1.864 0.368 2.076 1.194c0.335 0.19 0.458 0.636 0.257 0.971s-0.636 0.458-0.971 0.257l-2.076-1.183 0.614 1.786c0.313 0.893-1.049 1.35-1.35 0.469l-1.138-3.348-3.025-1.741v3.493l2.321 2.656c0.625 0.703-0.458 1.652-1.071 0.938l-1.25-1.429v2.388c0 0.391-0.324 0.714-0.714 0.714s-0.714-0.324-0.714-0.714v-2.388l-1.25 1.429c-0.614 0.714-1.696-0.234-1.071-0.938l2.321-2.656v-3.493l-3.025 1.741-1.138 3.348c-0.301 0.882-1.663 0.424-1.35-0.469l0.614-1.786-2.076 1.183c-0.335 0.201-0.77 0.078-0.971-0.257s-0.078-0.781 0.257-0.971l2.076-1.194-1.864-0.368c-0.926-0.19-0.647-1.585 0.279-1.406l3.46 0.692 3.025-1.752-3.025-1.752-3.46 0.692c-0.045 0.011-0.1 0.011-0.145 0.011-0.848 0-0.971-1.25-0.134-1.417l1.864-0.368-2.076-1.194c-0.335-0.19-0.458-0.636-0.257-0.971 0.201-0.346 0.636-0.458 0.971-0.257l2.076 1.183-0.614-1.786c-0.313-0.893 1.049-1.35 1.35-0.469l1.138 3.348 3.025 1.741v-3.493l-2.321-2.656c-0.625-0.703 0.458-1.652 1.071-0.938l1.25 1.429v-2.388c0-0.391 0.324-0.714 0.714-0.714s0.714 0.324 0.714 0.714v2.388l1.25-1.429c0.614-0.714 1.696 0.234 1.071 0.938l-2.321 2.656v3.493l3.025-1.741 1.138-3.348c0.301-0.882 1.663-0.424 1.35 0.469l-0.614 1.786 2.076-1.183c0.335-0.201 0.77-0.078 0.971 0.257s0.078 0.781-0.257 0.971l-2.076 1.194 1.864 0.368c0.837 0.167 0.714 1.417-0.134 1.417-0.045 0-0.1 0-0.145-0.011l-3.46-0.692-3.025 1.752 3.025 1.752 3.46-0.692c0.926-0.179 1.205 1.217 0.279 1.406z"></path>
</symbol>
<symbol id="icon-arrow-thin-right" viewBox="0 0 20 20">
<path d="M16.172 9l-6.071-6.071 1.414-1.414 8.485 8.485-8.485 8.485-1.414-1.414 6.071-6.071h-16.172v-2z"></path>
</symbol>
<symbol id="icon-arrow-thin-left" viewBox="0 0 20 20">
<path d="M3.828 9l6.071-6.071-1.414-1.414-8.485 8.485 8.485 8.485 1.414-1.414-6.071-6.071h16.172v-2h-16.172z"></path>
</symbol>
<symbol id="icon-arrow-outline-right" viewBox="0 0 20 20">
<path d="M20 10c0 5.523-4.477 10-10 10s-10-4.477-10-10v0c0-5.523 4.477-10 10-10s10 4.477 10 10v0zM18 10c0-4.418-3.582-8-8-8s-8 3.582-8 8v0c0 4.418 3.582 8 8 8s8-3.582 8-8v0zM10 12h-5v-4h5v-3l5 5-5 5v-3z"></path>
</symbol>
<symbol id="icon-arrow-outline-left" viewBox="0 0 20 20">
<path d="M0 10c0-5.523 4.477-10 10-10s10 4.477 10 10v0c0 5.523-4.477 10-10 10s-10-4.477-10-10v0zM2 10c0 4.418 3.582 8 8 8s8-3.582 8-8v0c0-4.418-3.582-8-8-8s-8 3.582-8 8v0zM10 8h5v4h-5v3l-5-5 5-5v3z"></path>
</symbol>
<symbol id="icon-add-outline" viewBox="0 0 20 20">
<path d="M11 9h4v2h-4v4h-2v-4h-4v-2h4v-4h2v4zM10 20c-5.523 0-10-4.477-10-10s4.477-10 10-10v0c5.523 0 10 4.477 10 10s-4.477 10-10 10v0zM10 18c4.418 0 8-3.582 8-8s-3.582-8-8-8v0c-4.418 0-8 3.582-8 8s3.582 8 8 8v0z"></path>
</symbol>
<symbol id="icon-arrow-right1" viewBox="0 0 20 20">
<path d="M16.172 9l-6.071-6.071 1.414-1.414 8.485 8.485-8.485 8.485-1.414-1.414 6.071-6.071h-16.172v-2z"></path>
</symbol>
<symbol id="icon-arrow-left1" viewBox="0 0 20 20">
<path d="M3.828 9l6.071-6.071-1.414-1.414-8.485 8.485 8.485 8.485 1.414-1.414-6.071-6.071h16.172v-2h-16.172z"></path>
</symbol>
<symbol id="icon-chevron-down" viewBox="0 0 20 20">
<path d="M4.516 7.548c0.436-0.446 1.043-0.481 1.576 0l3.908 3.747 3.908-3.747c0.533-0.481 1.141-0.446 1.574 0 0.436 0.445 0.408 1.197 0 1.615-0.406 0.418-4.695 4.502-4.695 4.502-0.217 0.223-0.502 0.335-0.787 0.335s-0.57-0.112-0.789-0.335c0 0-4.287-4.084-4.695-4.502s-0.436-1.17 0-1.615z"></path>
</symbol>
<symbol id="icon-chevron-small-left" viewBox="0 0 20 20">
<path d="M12.141 13.418c0.268 0.271 0.268 0.709 0 0.978s-0.701 0.272-0.969 0l-3.83-3.908c-0.268-0.27-0.268-0.707 0-0.979l3.83-3.908c0.267-0.27 0.701-0.27 0.969 0s0.268 0.709 0 0.978l-3.141 3.421 3.141 3.418z"></path>
</symbol>
<symbol id="icon-chevron-small-right" viewBox="0 0 20 20">
<path d="M11 10l-3.141-3.42c-0.268-0.27-0.268-0.707 0-0.978 0.268-0.27 0.701-0.27 0.969 0l3.83 3.908c0.268 0.271 0.268 0.709 0 0.979l-3.83 3.908c-0.267 0.272-0.701 0.27-0.969 0s-0.268-0.707 0-0.978l3.141-3.419z"></path>
</symbol>
<symbol id="icon-chevron-thin-left" viewBox="0 0 20 20">
<path d="M13.891 17.418c0.268 0.272 0.268 0.709 0 0.979s-0.701 0.271-0.969 0l-7.83-7.908c-0.268-0.27-0.268-0.707 0-0.979l7.83-7.908c0.268-0.27 0.701-0.27 0.969 0s0.268 0.709 0 0.979l-7.141 7.419 7.141 7.418z"></path>
</symbol>
<symbol id="icon-chevron-thin-right" viewBox="0 0 20 20">
<path d="M13.25 10l-7.141-7.42c-0.268-0.27-0.268-0.707 0-0.979 0.268-0.27 0.701-0.27 0.969 0l7.83 7.908c0.268 0.271 0.268 0.709 0 0.979l-7.83 7.908c-0.268 0.271-0.701 0.27-0.969 0s-0.268-0.707 0-0.979l7.141-7.417z"></path>
</symbol>
<symbol id="icon-chevron-up" viewBox="0 0 20 20">
<path d="M15.484 12.452c-0.436 0.446-1.043 0.481-1.576 0l-3.908-3.747-3.908 3.747c-0.533 0.481-1.141 0.446-1.574 0-0.436-0.445-0.408-1.197 0-1.615 0.406-0.418 4.695-4.502 4.695-4.502 0.217-0.223 0.502-0.335 0.787-0.335s0.57 0.112 0.789 0.335c0 0 4.287 4.084 4.695 4.502s0.436 1.17 0 1.615z"></path>
</symbol>
<symbol id="icon-open-book" viewBox="0 0 20 20">
<path d="M10.595 5.196l0.446 1.371c0.369-0.316 0.835-0.599 1.441-0.795 0.59-0.192 1.111-0.3 1.582-0.362l-0.43-1.323c-0.476 0.069-1.001 0.18-1.58 0.368s-1.055 0.45-1.459 0.741zM11.522 8.051l0.446 1.371c0.369-0.316 0.835-0.599 1.441-0.795 0.59-0.192 1.111-0.3 1.582-0.362l-0.43-1.323c-0.476 0.069-1.001 0.18-1.58 0.368-0.578 0.187-1.054 0.449-1.459 0.741zM12.45 10.905l0.446 1.371c0.369-0.316 0.835-0.599 1.441-0.795 0.59-0.192 1.111-0.3 1.582-0.362l-0.43-1.323c-0.476 0.069-1.001 0.18-1.58 0.368-0.579 0.187-1.055 0.45-1.459 0.741zM5.388 13.077l0.43 1.323c0.417-0.226 0.902-0.445 1.492-0.636 0.606-0.197 1.149-0.242 1.633-0.203l-0.446-1.371c-0.499 0.002-1.038 0.070-1.615 0.257-0.579 0.188-1.069 0.406-1.494 0.63zM3.533 7.368l0.43 1.323c0.417-0.226 0.902-0.444 1.492-0.636 0.606-0.197 1.149-0.242 1.633-0.203l-0.445-1.372c-0.499 0.003-1.038 0.070-1.616 0.258-0.579 0.188-1.069 0.406-1.494 0.63zM4.46 10.223l0.43 1.323c0.417-0.226 0.902-0.445 1.492-0.636 0.606-0.197 1.149-0.242 1.633-0.203l-0.445-1.372c-0.499 0.002-1.038 0.070-1.615 0.257-0.579 0.188-1.070 0.407-1.495 0.631zM11.064 1.41c-1.723 0.56-2.623 1.752-3.053 2.559-0.822-0.4-2.25-0.835-3.973-0.275-2.523 0.82-3.969 2.627-3.969 2.627l4.095 12.587c0.126 0.387 0.646 0.477 0.878 0.143 0.499-0.719 1.46-1.658 3.257-2.242 1.718-0.558 2.969 0.054 3.655 0.578 0.272 0.208 0.662 0.060 0.762-0.268 0.252-0.827 0.907-2.040 2.61-2.593 1.799-0.585 3.129-0.389 3.956-0.1 0.385 0.134 0.75-0.242 0.625-0.629l-4.088-12.594c0 0-2.232-0.612-4.755 0.207zM10.951 15.256c-0.819-0.244-1.901-0.358-3.141 0.044-1.251 0.406-2.127 0.949-2.699 1.404l-3.245-9.982c0.358-0.358 1.187-1.042 2.662-1.521 1.389-0.451 2.528-0.065 3.279 0.378l3.144 9.677zM17.845 12.567c-0.731-0.032-1.759 0.044-3.010 0.451-1.24 0.403-2.048 1.132-2.567 1.81l-3.144-9.677c0.346-0.8 1.040-1.782 2.43-2.233 1.474-0.479 2.547-0.413 3.047-0.334l3.244 9.983z"></path>
</symbol>
<symbol id="icon-check" viewBox="0 0 20 20">
<path d="M8.294 16.998c-0.435 0-0.847-0.203-1.111-0.553l-3.573-4.721c-0.465-0.613-0.344-1.486 0.27-1.951 0.615-0.467 1.488-0.344 1.953 0.27l2.351 3.104 5.911-9.492c0.407-0.652 1.267-0.852 1.921-0.445s0.854 1.266 0.446 1.92l-6.984 11.21c-0.242 0.391-0.661 0.635-1.12 0.656-0.022 0.002-0.042 0.002-0.064 0.002z"></path>
</symbol>
<symbol id="icon-image" viewBox="0 0 20 20">
<path d="M19 2h-18c-0.553 0-1 0.447-1 1v14c0 0.552 0.447 1 1 1h18c0.553 0 1-0.448 1-1v-14c0-0.552-0.447-1-1-1zM18 16h-16v-12h16v12zM14.315 10.877l-3.231 1.605-3.77-6.101-3.314 7.619h12l-1.685-3.123zM13.25 9c0.69 0 1.25-0.56 1.25-1.25s-0.56-1.25-1.25-1.25-1.25 0.56-1.25 1.25 0.56 1.25 1.25 1.25z"></path>
</symbol>
<symbol id="icon-light-down" viewBox="0 0 20 20">
<path d="M10 6.797c-1.775 0-3.2 1.426-3.2 3.201 0 1.773 1.425 3.199 3.2 3.199s3.199-1.426 3.199-3.199c0-1.775-1.425-3.201-3.199-3.201zM10 12.047c-1.133 0-2.051-0.916-2.051-2.049s0.918-2.051 2.051-2.051c1.132 0 2.050 0.918 2.050 2.051s-0.919 2.049-2.050 2.049zM15 5c-0.312-0.312-0.883-0.248-1.273 0.142s-0.453 0.959-0.141 1.272 0.882 0.25 1.273-0.141c0.39-0.39 0.453-0.961 0.141-1.273zM5.142 13.729c-0.391 0.39-0.454 0.959-0.142 1.271s0.882 0.25 1.273-0.141c0.391-0.391 0.454-0.961 0.142-1.273s-0.883-0.248-1.273 0.143zM5 5c-0.312 0.312-0.249 0.883 0.141 1.273s0.961 0.453 1.273 0.141 0.249-0.883-0.142-1.273c-0.389-0.389-0.96-0.453-1.272-0.141zM13.727 14.857c0.39 0.391 0.96 0.455 1.273 0.143s0.249-0.883-0.142-1.274c-0.391-0.391-0.96-0.453-1.273-0.141s-0.248 0.882 0.142 1.272zM10 4.998c0.441 0 0.8-0.447 0.8-1s-0.359-0.998-0.8-0.998c-0.442 0-0.801 0.445-0.801 0.998s0.358 1 0.801 1zM10 17c0.441 0 0.8-0.447 0.8-1s-0.358-0.998-0.799-0.998c-0.442 0-0.801 0.445-0.801 0.998s0.357 1 0.8 1zM5 10c0-0.441-0.45-0.8-1.003-0.8s-0.997 0.359-0.997 0.8c0 0.442 0.444 0.8 0.997 0.8s1.003-0.358 1.003-0.8zM17 10c0-0.441-0.448-0.8-1.001-0.8s-0.999 0.359-0.999 0.8c0 0.442 0.446 0.8 0.999 0.8s1.001-0.358 1.001-0.8z"></path>
</symbol>
<symbol id="icon-mail" viewBox="0 0 20 20">
<path d="M1.574 5.286c0.488 0.262 7.248 3.894 7.5 4.029s0.578 0.199 0.906 0.199c0.328 0 0.654-0.064 0.906-0.199s7.012-3.767 7.5-4.029c0.489-0.263 0.951-1.286 0.054-1.286h-16.919c-0.897 0-0.435 1.023 0.053 1.286zM18.613 7.489c-0.555 0.289-7.387 3.849-7.727 4.027s-0.578 0.199-0.906 0.199-0.566-0.021-0.906-0.199-7.133-3.739-7.688-4.028c-0.39-0.204-0.386 0.035-0.386 0.219s0 7.293 0 7.293c0 0.42 0.566 1 1 1h16c0.434 0 1-0.58 1-1 0 0 0-7.108 0-7.292s0.004-0.423-0.387-0.219z"></path>
</symbol>
<symbol id="icon-map" viewBox="0 0 20 20">
<path d="M19.447 3.718l-6-3c-0.281-0.141-0.613-0.141-0.895 0l-5.63 2.815-5.606-1.869c-0.306-0.102-0.64-0.051-0.901 0.138s-0.415 0.49-0.415 0.811v13.001c0 0.379 0.214 0.725 0.553 0.894l6 3c0.141 0.070 0.294 0.106 0.447 0.106s0.307-0.035 0.447-0.106l5.63-2.814 5.606 1.869c0.305 0.1 0.64 0.049 0.901-0.139s0.415-0.49 0.415-0.81v-13.002c0.001-0.379-0.213-0.725-0.552-0.894zM8 5.231l4-2v11.763l-4 2v-11.763zM2 4l4 1.333v11.661l-4-2v-10.994zM18 16.227l-4-1.334v-11.662l4 2v10.996z"></path>
</symbol>
<symbol id="icon-user" viewBox="0 0 20 20">
<path d="M7.725 2.146c-1.016 0.756-1.289 1.953-1.239 2.59 0.064 0.779 0.222 1.793 0.222 1.793s-0.313 0.17-0.313 0.854c0.109 1.717 0.683 0.976 0.801 1.729 0.284 1.814 0.933 1.491 0.933 2.481 0 1.649-0.68 2.42-2.803 3.334-2.13 0.918-4.326 2.073-4.326 4.073v1h18v-1c0-2-2.197-3.155-4.328-4.072-2.123-0.914-2.801-1.684-2.801-3.334 0-0.99 0.647-0.667 0.932-2.481 0.119-0.753 0.692-0.012 0.803-1.729 0-0.684-0.314-0.854-0.314-0.854s0.158-1.014 0.221-1.793c0.065-0.817-0.398-2.561-2.3-3.096-0.333-0.34-0.558-0.881 0.466-1.424-2.24-0.105-2.761 1.067-3.954 1.929z"></path>
</symbol>
<symbol id="icon-vinyl" viewBox="0 0 20 20">
<path d="M9.999 0.8c-5.081 0-9.199 4.119-9.199 9.201 0 5.080 4.118 9.199 9.199 9.199s9.2-4.119 9.2-9.199c0-5.082-4.119-9.201-9.2-9.201zM10 13.001c-1.657 0-3-1.344-3-3s1.343-3 3-3c1.656 0 3 1.344 3 3s-1.344 3-3 3z"></path>
</symbol>
<symbol id="icon-water" viewBox="0 0 20 20">
<path d="M9.882 9.093c-0.511 4.115-3.121 4.847-3.121 7.708 0 1.766 1.483 3.199 3.239 3.199s3.238-1.434 3.238-3.199c0-2.861-2.61-3.593-3.121-7.708-0.016-0.123-0.219-0.123-0.235 0zM3.883 0.093c-0.511 4.115-3.121 4.846-3.121 7.708 0 1.765 1.482 3.199 3.238 3.199s3.238-1.434 3.238-3.199c0-2.861-2.61-3.593-3.121-7.708-0.015-0.123-0.219-0.123-0.234 0zM15.883 0.093c-0.511 4.115-3.121 4.847-3.121 7.708 0 1.765 1.482 3.199 3.238 3.199s3.238-1.434 3.238-3.199c0-2.861-2.61-3.593-3.121-7.708-0.016-0.123-0.219-0.123-0.234 0z"></path>
</symbol>
<symbol id="icon-soundcloud" viewBox="0 0 20 20">
<path d="M0.672 13.055l0.328-1.401-0.328-1.447c-0.009-0.043-0.092-0.076-0.191-0.076-0.102 0-0.184 0.033-0.191 0.076l-0.29 1.447 0.289 1.4c0.008 0.045 0.090 0.076 0.191 0.076s0.183-0.030 0.192-0.075zM2.723 13.832l0.277-2.164-0.277-3.348c-0.009-0.084-0.114-0.152-0.239-0.152-0.127 0-0.233 0.068-0.238 0.152l-0.246 3.348 0.246 2.164c0.006 0.086 0.111 0.152 0.238 0.152 0.125 0 0.23-0.066 0.239-0.152zM4.768 13.797l0.232-2.127-0.232-4.457c-0.006-0.106-0.129-0.188-0.282-0.188s-0.275 0.082-0.281 0.188l-0.205 4.457 0.205 2.129c0.006 0.103 0.129 0.186 0.281 0.186 0.153-0.001 0.276-0.083 0.282-0.188zM6.81 13.766l0.19-2.096-0.19-4.49c-0.005-0.123-0.146-0.221-0.32-0.221-0.176 0-0.316 0.098-0.321 0.221l-0.169 4.49 0.17 2.096c0.004 0.123 0.145 0.221 0.32 0.221s0.315-0.096 0.32-0.221zM8.85 13.738l0.15-2.066-0.15-5.149c-0.004-0.142-0.164-0.255-0.358-0.255s-0.354 0.115-0.357 0.256l-0.135 5.146 0.135 2.068c0.003 0.141 0.163 0.256 0.357 0.256s0.354-0.113 0.358-0.256zM10.277 13.996c0.008 0 7.1 0.004 7.145 0.004 1.424 0 2.578-1.117 2.578-2.494s-1.154-2.492-2.578-2.492c-0.353 0-0.689 0.070-0.996 0.193-0.205-2.246-2.153-4.008-4.529-4.008-0.581 0-1.148 0.111-1.648 0.297-0.196 0.074-0.247 0.148-0.249 0.295v7.91c0.002 0.153 0.124 0.279 0.277 0.295z"></path>
</symbol>
<symbol id="icon-facebook11" viewBox="0 0 20 20">
<path d="M17 1h-14c-1.1 0-2 0.9-2 2v14c0 1.101 0.9 2 2 2h7v-7h-2v-2.475h2v-2.050c0-2.164 1.212-3.684 3.766-3.684l1.803 0.002v2.605h-1.197c-0.994 0-1.372 0.746-1.372 1.438v1.69h2.568l-0.568 2.474h-2v7h4c1.1 0 2-0.899 2-2v-14c0-1.1-0.9-2-2-2z"></path>
</symbol>
<symbol id="icon-linkedin" viewBox="0 0 20 20">
<path d="M5 3c0 1.062-0.71 1.976-2.001 1.976-1.215 0-1.999-0.862-1.999-1.924 0-1.090 0.76-2.052 2-2.052s1.976 0.91 2 2zM1 19v-13h4v13h-4z"></path>
<path d="M7 10.444c0-1.545-0.051-2.836-0.102-3.951h3.594l0.178 1.723h0.076c0.506-0.811 1.746-2 3.822-2 2.532 0 4.432 1.695 4.432 5.342v7.442h-4v-6.861c0-1.594-0.607-2.81-2-2.81-1.062 0-1.594 0.86-1.873 1.569-0.102 0.254-0.127 0.608-0.127 0.963v7.139h-4v-8.556z"></path>
</symbol>
<symbol id="icon-pinterest" viewBox="0 0 20 20">
<path d="M8.617 13.227c-0.526 2.754-1.167 5.394-3.068 6.773-0.586-4.162 0.861-7.287 1.534-10.605-1.147-1.93 0.138-5.812 2.555-4.855 2.975 1.176-2.576 7.172 1.15 7.922 3.891 0.781 5.479-6.75 3.066-9.199-3.485-3.538-10.146-0.083-9.326 4.982 0.199 1.238 1.478 1.613 0.511 3.322-2.231-0.494-2.897-2.254-2.811-4.6 0.138-3.84 3.449-6.527 6.771-6.9 4.201-0.471 8.144 1.543 8.689 5.494 0.613 4.461-1.896 9.293-6.389 8.945-1.218-0.095-1.728-0.699-2.682-1.279z"></path>
</symbol>
<symbol id="icon-twitter-with-circle" viewBox="0 0 20 20">
<path d="M10 0.4c-5.302 0-9.6 4.298-9.6 9.6s4.298 9.6 9.6 9.6 9.6-4.298 9.6-9.6-4.298-9.6-9.6-9.6zM13.905 8.264c0.004 0.082 0.005 0.164 0.005 0.244 0 2.5-1.901 5.381-5.379 5.381-1.068 0-2.062-0.312-2.898-0.85 0.147 0.018 0.298 0.025 0.451 0.025 0.886 0 1.701-0.301 2.348-0.809-0.827-0.016-1.525-0.562-1.766-1.312 0.115 0.021 0.233 0.033 0.355 0.033 0.172 0 0.34-0.023 0.498-0.066-0.865-0.174-1.517-0.938-1.517-1.854v-0.023c0.255 0.141 0.547 0.227 0.857 0.237-0.508-0.34-0.841-0.918-0.841-1.575 0-0.346 0.093-0.672 0.256-0.951 0.933 1.144 2.325 1.896 3.897 1.977-0.033-0.139-0.049-0.283-0.049-0.432 0-1.043 0.846-1.891 1.891-1.891 0.543 0 1.035 0.23 1.38 0.598 0.431-0.086 0.835-0.242 1.2-0.459-0.141 0.441-0.44 0.812-0.831 1.047 0.383-0.047 0.747-0.148 1.086-0.299-0.253 0.379-0.574 0.713-0.943 0.979z"></path>
</symbol>
<symbol id="icon-twitter" viewBox="0 0 20 20">
<path d="M17.316 6.246c0.008 0.162 0.011 0.326 0.011 0.488 0 4.99-3.797 10.742-10.74 10.742-2.133 0-4.116-0.625-5.787-1.697 0.296 0.035 0.596 0.053 0.9 0.053 1.77 0 3.397-0.604 4.688-1.615-1.651-0.031-3.046-1.121-3.526-2.621 0.23 0.043 0.467 0.066 0.71 0.066 0.345 0 0.679-0.045 0.995-0.131-1.727-0.348-3.028-1.873-3.028-3.703 0-0.016 0-0.031 0-0.047 0.509 0.283 1.092 0.453 1.71 0.473-1.013-0.678-1.68-1.832-1.68-3.143 0-0.691 0.186-1.34 0.512-1.898 1.861 2.285 4.644 3.787 7.781 3.945-0.064-0.277-0.097-0.564-0.097-0.861 0-2.084 1.689-3.773 3.774-3.773 1.086 0 2.067 0.457 2.756 1.191 0.859-0.17 1.667-0.484 2.397-0.916-0.282 0.881-0.881 1.621-1.66 2.088 0.764-0.092 1.49-0.293 2.168-0.594-0.506 0.758-1.146 1.422-1.884 1.953z"></path>
</symbol>
</defs>
</svg>
